name Walk3.mot
datacolumns 19
datarows 30
range 1.33500000 1.36400000
endheader

                time	   L_ground_force_vx	   L_ground_force_vy	   L_ground_force_vz	   L_ground_force_px	   L_ground_force_py	   L_ground_force_pz	   R_ground_force_vx	   R_ground_force_vy	   R_ground_force_vz	   R_ground_force_px	   R_ground_force_py	   R_ground_force_pz	   L_ground_torque_x	   L_ground_torque_y	   L_ground_torque_z	   R_ground_torque_x	   R_ground_torque_y	   R_ground_torque_z	
          1.33500000	          0.00000000	          0.00000000	          0.00000000	          0.00000000	          0.00000000	          0.00000000	        -14.04036726	        393.33482308	        -33.57585137	          0.33930611	          0.00000000	          0.09215503	          0.00000000	          0.00000000	          0.00000000	          0.00000000	          4.99987977	          0.00000000	
          1.33600000	          0.00000000	          0.00000000	          0.00000000	          0.00000000	          0.00000000	          0.00000000	        -13.94422574	        392.29757664	        -33.14240555	          0.33983586	          0.00000000	          0.09200251	          0.00000000	          0.00000000	          0.00000000	          0.00000000	          4.95578227	          0.00000000	
          1.33700000	          0.00000000	          0.00000000	          0.00000000	          0.00000000	          0.00000000	          0.00000000	        -13.85055130	        391.46777525	        -32.70582870	          0.34042560	          0.00000000	          0.09191326	          0.00000000	          0.00000000	          0.00000000	          0.00000000	          4.91844891	          0.00000000	
          1.33800000	          0.00000000	          0.00000000	          0.00000000	          0.00000000	          0.00000000	          0.00000000	        -13.74086435	        390.80853780	        -32.25278277	          0.34102906	          0.00000000	          0.09185326	          0.00000000	          0.00000000	          0.00000000	          0.00000000	          4.88424024	          0.00000000	
          1.33900000	          0.00000000	          0.00000000	          0.00000000	          0.00000000	          0.00000000	          0.00000000	        -13.59786701	        390.25208048	        -31.78869486	          0.34155016	          0.00000000	          0.09176468	          0.00000000	          0.00000000	          0.00000000	          0.00000000	          4.84866385	          0.00000000	
          1.34000000	          0.00000000	          0.00000000	          0.00000000	          0.00000000	          0.00000000	          0.00000000	        -13.40757428	        389.73829996	        -31.33308279	          0.34191269	          0.00000000	          0.09162368	          0.00000000	          0.00000000	          0.00000000	          0.00000000	          4.80797706	          0.00000000	
          1.34100000	          0.00000000	          0.00000000	          0.00000000	          0.00000000	          0.00000000	          0.00000000	        -13.16062925	        389.23106751	        -30.90415915	          0.34213041	          0.00000000	          0.09146429	          0.00000000	          0.00000000	          0.00000000	          0.00000000	          4.75743719	          0.00000000	
          1.34200000	          0.00000000	          0.00000000	          0.00000000	          0.00000000	          0.00000000	          0.00000000	        -12.85652379	        388.74405418	        -30.51348205	          0.34231292	          0.00000000	          0.09135233	          0.00000000	          0.00000000	          0.00000000	          0.00000000	          4.69059598	          0.00000000	
          1.34300000	          0.00000000	          0.00000000	          0.00000000	          0.00000000	          0.00000000	          0.00000000	        -12.51063171	        388.33486357	        -30.16516964	          0.34259266	          0.00000000	          0.09133050	          0.00000000	          0.00000000	          0.00000000	          0.00000000	          4.60663322	          0.00000000	
          1.34400000	          0.00000000	          0.00000000	          0.00000000	          0.00000000	          0.00000000	          0.00000000	        -12.15575390	        388.03943571	        -29.85496697	          0.34302252	          0.00000000	          0.09138516	          0.00000000	          0.00000000	          0.00000000	          0.00000000	          4.51660711	          0.00000000	
          1.34500000	          0.00000000	          0.00000000	          0.00000000	          0.00000000	          0.00000000	          0.00000000	        -11.82938635	        387.83123831	        -29.57720503	          0.34353526	          0.00000000	          0.09145978	          0.00000000	          0.00000000	          0.00000000	          0.00000000	          4.43517373	          0.00000000	
          1.34600000	          0.00000000	          0.00000000	          0.00000000	          0.00000000	          0.00000000	          0.00000000	        -11.55484601	        387.64956451	        -29.33201896	          0.34401382	          0.00000000	          0.09148993	          0.00000000	          0.00000000	          0.00000000	          0.00000000	          4.36697533	          0.00000000	
          1.34700000	          0.00000000	          0.00000000	          0.00000000	          0.00000000	          0.00000000	          0.00000000	        -11.33415842	        387.45641928	        -29.12084872	          0.34439020	          0.00000000	          0.09143312	          0.00000000	          0.00000000	          0.00000000	          0.00000000	          4.30584649	          0.00000000	
          1.34800000	          0.00000000	          0.00000000	          0.00000000	          0.00000000	          0.00000000	          0.00000000	        -11.15287847	        387.27452438	        -28.94064989	          0.34467574	          0.00000000	          0.09129000	          0.00000000	          0.00000000	          0.00000000	          0.00000000	          4.24424619	          0.00000000	
          1.34900000	          0.00000000	          0.00000000	          0.00000000	          0.00000000	          0.00000000	          0.00000000	        -10.98966330	        387.15837533	        -28.77889957	          0.34491997	          0.00000000	          0.09110732	          0.00000000	          0.00000000	          0.00000000	          0.00000000	          4.17976303	          0.00000000	
          1.35000000	          0.00000000	          0.00000000	          0.00000000	          0.00000000	          0.00000000	          0.00000000	        -10.82681627	        387.13088357	        -28.61083150	          0.34516224	          0.00000000	          0.09094501	          0.00000000	          0.00000000	          0.00000000	          0.00000000	          4.11559552	          0.00000000	
          1.35100000	          0.00000000	          0.00000000	          0.00000000	          0.00000000	          0.00000000	          0.00000000	        -10.65412396	        387.17744110	        -28.41232204	          0.34543370	          0.00000000	          0.09083893	          0.00000000	          0.00000000	          0.00000000	          0.00000000	          4.05773892	          0.00000000	
          1.35200000	          0.00000000	          0.00000000	          0.00000000	          0.00000000	          0.00000000	          0.00000000	        -10.46831197	        387.28865956	        -28.17703303	          0.34576461	          0.00000000	          0.09080516	          0.00000000	          0.00000000	          0.00000000	          0.00000000	          4.01113645	          0.00000000	
          1.35300000	          0.00000000	          0.00000000	          0.00000000	          0.00000000	          0.00000000	          0.00000000	        -10.27362511	        387.47041565	        -27.91587388	          0.34614508	          0.00000000	          0.09084631	          0.00000000	          0.00000000	          0.00000000	          0.00000000	          3.97586171	          0.00000000	
          1.35400000	          0.00000000	          0.00000000	          0.00000000	          0.00000000	          0.00000000	          0.00000000	        -10.07537455	        387.71064486	        -27.64040507	          0.34650884	          0.00000000	          0.09093086	          0.00000000	          0.00000000	          0.00000000	          0.00000000	          3.94627015	          0.00000000	
          1.35500000	          0.00000000	          0.00000000	          0.00000000	          0.00000000	          0.00000000	          0.00000000	         -9.86901448	        387.96229377	        -27.34891857	          0.34678197	          0.00000000	          0.09100231	          0.00000000	          0.00000000	          0.00000000	          0.00000000	          3.91598217	          0.00000000	
          1.35600000	          0.00000000	          0.00000000	          0.00000000	          0.00000000	          0.00000000	          0.00000000	         -9.64305682	        388.16959139	        -27.02900940	          0.34692190	          0.00000000	          0.09101980	          0.00000000	          0.00000000	          0.00000000	          0.00000000	          3.88166602	          0.00000000	
          1.35700000	          0.00000000	          0.00000000	          0.00000000	          0.00000000	          0.00000000	          0.00000000	         -9.39179820	        388.31311862	        -26.67031400	          0.34692722	          0.00000000	          0.09097701	          0.00000000	          0.00000000	          0.00000000	          0.00000000	          3.84004730	          0.00000000	
          1.35800000	          0.00000000	          0.00000000	          0.00000000	          0.00000000	          0.00000000	          0.00000000	         -9.11728155	        388.42899108	        -26.27294033	          0.34685841	          0.00000000	          0.09089660	          0.00000000	          0.00000000	          0.00000000	          0.00000000	          3.78694602	          0.00000000	
          1.35900000	          0.00000000	          0.00000000	          0.00000000	          0.00000000	          0.00000000	          0.00000000	         -8.82315359	        388.56990268	        -25.84764665	          0.34682050	          0.00000000	          0.09081854	          0.00000000	          0.00000000	          0.00000000	          0.00000000	          3.72241684	          0.00000000	
          1.36000000	          0.00000000	          0.00000000	          0.00000000	          0.00000000	          0.00000000	          0.00000000	         -8.51202568	        388.75041381	        -25.41504680	          0.34688073	          0.00000000	          0.09078410	          0.00000000	          0.00000000	          0.00000000	          0.00000000	          3.65183397	          0.00000000	
          1.36100000	          0.00000000	          0.00000000	          0.00000000	          0.00000000	          0.00000000	          0.00000000	         -8.18455655	        388.95131823	        -25.00338594	          0.34702305	          0.00000000	          0.09081127	          0.00000000	          0.00000000	          0.00000000	          0.00000000	          3.57980543	          0.00000000	
          1.36200000	          0.00000000	          0.00000000	          0.00000000	          0.00000000	          0.00000000	          0.00000000	         -7.84216242	        389.15921816	        -24.63322039	          0.34719191	          0.00000000	          0.09088122	          0.00000000	          0.00000000	          0.00000000	          0.00000000	          3.50743662	          0.00000000	
          1.36300000	          0.00000000	          0.00000000	          0.00000000	          0.00000000	          0.00000000	          0.00000000	         -7.49299941	        389.36713021	        -24.30136789	          0.34734533	          0.00000000	          0.09094997	          0.00000000	          0.00000000	          0.00000000	          0.00000000	          3.43592595	          0.00000000	
          1.36400000	          0.00000000	          0.00000000	          0.00000000	          0.00000000	          0.00000000	          0.00000000	         -7.15084284	        389.55760684	        -23.99071217	          0.34746130	          0.00000000	          0.09096610	          0.00000000	          0.00000000	          0.00000000	          0.00000000	          3.36678562	          0.00000000	
